<svg width="159" height="46" viewBox="0 0 159 46" fill="none" xmlns="http://www.w3.org/2000/svg">
<circle cx="18" cy="27.6797" r="17.16" fill="#56A3E6" stroke="#3A6D99" stroke-width="1.68"/>
<circle cx="18" cy="27.6797" r="12" fill="#CEE8FF"/>
<path fill-rule="evenodd" clip-rule="evenodd" d="M21.389 25.9579C21.1255 26.2214 21.0702 26.6232 21.186 26.9774C21.7943 28.8341 21.1532 31.2136 19.3889 32.9779C17.0673 35.2994 13.6787 35.6761 11.8202 33.8185C9.96178 31.9609 10.3402 28.5723 12.6618 26.2499C14.4053 24.5072 16.7485 23.8601 18.5957 24.4321C18.9465 24.5409 19.3405 24.4813 19.6006 24.2212L19.8079 24.013C20.1061 23.6901 20.4701 23.4351 20.8754 23.2651C21.2808 23.0952 21.7179 23.0143 22.1571 23.0281L24.9427 23.1317C27.0716 23.2104 28.6648 21.0668 27.958 19.0718L27.7222 18.4031C26.6076 15.252 29.1426 11.8695 32.5035 12.0267L34.2004 12.1045C35.0376 12.1434 35.7107 11.3684 35.5535 10.5467L35.2856 9.14011C34.8648 6.93778 36.4434 4.78037 38.6846 4.49352L39.946 4.33109C40.1112 4.30993 40.2789 4.3215 40.4395 4.36515C40.6002 4.4088 40.7507 4.48366 40.8824 4.58548C41.0142 4.68729 41.1246 4.81405 41.2073 4.95853C41.2901 5.103 41.3436 5.26236 41.3647 5.4275C41.3859 5.59265 41.3743 5.76034 41.3307 5.92101C41.287 6.08168 41.2121 6.23219 41.1103 6.36392C41.0085 6.49566 40.8818 6.60606 40.7373 6.6888C40.5928 6.77155 40.4334 6.82503 40.2683 6.84619L38.9118 7.02072C38.1645 7.11576 37.6383 7.83547 37.7783 8.56901L38.0461 9.97647C38.517 12.4415 36.4978 14.7665 33.9879 14.6507L32.2901 14.5712C30.7626 14.5004 29.61 16.0383 30.1172 17.4699L30.3539 18.1387C31.6646 21.8426 28.7054 25.8248 24.7526 25.6779L21.9671 25.5743C21.9042 25.5717 21.8416 25.5829 21.7835 25.6071C21.7255 25.6313 21.6734 25.6678 21.631 25.7142L21.389 25.9579Z" fill="#4D91CC"/>
<path d="M55.295 34.224C53.7377 34.224 52.3297 33.9573 51.071 33.424C49.8337 32.8907 48.8523 32.1227 48.127 31.12C47.4017 30.1173 47.0283 28.9333 47.007 27.568H51.807C51.871 28.4853 52.191 29.2107 52.767 29.744C53.3643 30.2773 54.175 30.544 55.199 30.544C56.2443 30.544 57.0657 30.2987 57.663 29.808C58.2603 29.296 58.559 28.6347 58.559 27.824C58.559 27.1627 58.3563 26.6187 57.951 26.192C57.5457 25.7653 57.0337 25.4347 56.415 25.2C55.8177 24.944 54.9857 24.6667 53.919 24.368C52.4683 23.9413 51.2843 23.5253 50.367 23.12C49.471 22.6933 48.6923 22.064 48.031 21.232C47.391 20.3787 47.071 19.248 47.071 17.84C47.071 16.5173 47.4017 15.3653 48.063 14.384C48.7243 13.4027 49.6523 12.656 50.847 12.144C52.0417 11.6107 53.407 11.344 54.943 11.344C57.247 11.344 59.1137 11.9093 60.543 13.04C61.9937 14.1493 62.7937 15.7067 62.943 17.712H58.015C57.9723 16.944 57.6417 16.3147 57.023 15.824C56.4257 15.312 55.6257 15.056 54.623 15.056C53.7483 15.056 53.0443 15.28 52.511 15.728C51.999 16.176 51.743 16.8267 51.743 17.68C51.743 18.2773 51.935 18.7787 52.319 19.184C52.7243 19.568 53.215 19.888 53.791 20.144C54.3883 20.3787 55.2203 20.656 56.287 20.976C57.7377 21.4027 58.9217 21.8293 59.839 22.256C60.7563 22.6827 61.5457 23.3227 62.207 24.176C62.8683 25.0293 63.199 26.1493 63.199 27.536C63.199 28.7307 62.8897 29.84 62.271 30.864C61.6523 31.888 60.7457 32.7093 59.551 33.328C58.3563 33.9253 56.9377 34.224 55.295 34.224ZM83.371 18.576C83.371 19.7707 83.083 20.8907 82.507 21.936C81.9523 22.9813 81.067 23.824 79.851 24.464C78.6563 25.104 77.1417 25.424 75.307 25.424H71.563V34H67.083V11.664H75.307C77.035 11.664 78.507 11.9627 79.723 12.56C80.939 13.1573 81.8457 13.9787 82.443 15.024C83.0617 16.0693 83.371 17.2533 83.371 18.576ZM75.115 21.808C76.3523 21.808 77.2697 21.5307 77.867 20.976C78.4643 20.4 78.763 19.6 78.763 18.576C78.763 16.4 77.547 15.312 75.115 15.312H71.563V21.808H75.115ZM91.0318 15.28V20.88H98.5518V24.432H91.0318V30.352H99.5118V34H86.5518V11.632H99.5118V15.28H91.0318ZM122.687 34H118.207L108.063 18.672V34H103.583V11.632H108.063L118.207 26.992V11.632H122.687V34ZM131.594 11.664V34H127.114V11.664H131.594ZM134.933 22.8C134.933 20.6027 135.423 18.64 136.405 16.912C137.407 15.1627 138.762 13.808 140.469 12.848C142.197 11.8667 144.127 11.376 146.261 11.376C148.757 11.376 150.943 12.016 152.821 13.296C154.698 14.576 156.01 16.3467 156.757 18.608H151.605C151.093 17.5413 150.367 16.7413 149.429 16.208C148.511 15.6747 147.445 15.408 146.229 15.408C144.927 15.408 143.765 15.7173 142.741 16.336C141.738 16.9333 140.949 17.7867 140.373 18.896C139.818 20.0053 139.541 21.3067 139.541 22.8C139.541 24.272 139.818 25.5733 140.373 26.704C140.949 27.8133 141.738 28.6773 142.741 29.296C143.765 29.8933 144.927 30.192 146.229 30.192C147.445 30.192 148.511 29.9253 149.429 29.392C150.367 28.8373 151.093 28.0267 151.605 26.96H156.757C156.01 29.2427 154.698 31.024 152.821 32.304C150.965 33.5627 148.778 34.192 146.261 34.192C144.127 34.192 142.197 33.712 140.469 32.752C138.762 31.7707 137.407 30.416 136.405 28.688C135.423 26.96 134.933 24.9973 134.933 22.8Z" fill="#4D91CC"/>
</svg>
